# xmcd
#
# Track frame offsets: 
#        187
#        14812
#        28462
#        54900
#        71512
#        82087
#        100875
#        122662
#        136687
#        151837
#        174600
#        188662
#        202687
#        225262
#        239437
#        249037
#        265462
#        286350
#
# Disc length: 4075 seconds
#
# Revision: 2
# Processed by: cddbd v1.5.2PL0 Copyright (c) Steve Scherf et al.
# Submitted via: ExactAudioCopyFreeDBPlugin 1.0
#
DISCID=ee0fe912
DTITLE=Various Artist - Boston Blues Blast, Volume 1
DYEAR=1991
DGENRE=Blues
TTITLE0="Earring" George Mayweather - It's Your Last Time
TTITLE1=Sugar Ray and The Bluetones - Your Red Wagon
TTITLE2=Luther "Guitar Junior" Johnson - Graveyard Dogs
TTITLE3=11th Hour Band - UFO Alert
TTITLE4=Paul Rishell - Louise
TTITLE5=Ron Levy - Levtronic Blues
TTITLE6=James Montgomery Band - Yonder's Wall
TTITLE7=Lynne Harrison and The Hardliners - Amnesia Blues
TTITLE8=Weepin' Willie - Can't Go Wrong
TTITLE9=Rick Russell Band - Basic Black
TTITLE10=Jerry Portnoy - Blues in a Dream
TTITLE11=George Gritzbach - Tell Me Sister
TTITLE12=T. Blade and The Esquires - I'm a Business Man
TTITLE13=Boogaloo Swamis - Sugar Bee
TTITLE14=Shirley Lewis Experience - Boppin' and Rockin' the Blues
TTITLE15=Chris McDermott and The Black River Snakes - Double-Edged Blade
TTITLE16=Young Neal and The Vipers - Guitar Slinger
TTITLE17=David Maxwell - Honky Tonk Fever
EXTD=Tone Cool Records\n129 Parker Street\nNewton, MA\n
EXTT0=
EXTT1=
EXTT2=
EXTT3=
EXTT4=
EXTT5=
EXTT6=
EXTT7=
EXTT8=
EXTT9=
EXTT10=
EXTT11=
EXTT12=
EXTT13=
EXTT14=
EXTT15=
EXTT16=
EXTT17=
PLAYORDER=
